<svg xmlns="http://www.w3.org/2000/svg" viewBox="0 0 135.88 142.31"><defs><style>.cls-1{fill:#fff;}</style></defs><g id="Layer_2" data-name="Layer 2"><g id="Layer_1-2" data-name="Layer 1"><path class="cls-1" d="M67.59,116.48a52.56,52.56,0,0,1-21.91-5,48.35,48.35,0,0,1-13.84-9.59A48,48,0,0,1,18.15,77.14a47.12,47.12,0,0,1,3.71-30.53,47.73,47.73,0,0,1,7.73-11.5A48.68,48.68,0,0,1,42.87,24.59,51.18,51.18,0,0,1,56.43,19.4a53.76,53.76,0,0,1,9.62-1.14,58,58,0,0,1,9.68.48,51.32,51.32,0,0,1,13.18,3.81,49.82,49.82,0,0,1,13.34,8.61,48.69,48.69,0,0,1,11.07,14.3,47.73,47.73,0,0,1-3,48.73,50.74,50.74,0,0,1-13.59,13.5,52.07,52.07,0,0,1-29.1,8.79Zm0-1.9.49,0a45.94,45.94,0,0,0,13.09-1.67,50.32,50.32,0,0,0,19.94-10.79A47.1,47.1,0,0,0,110,91.58a45.55,45.55,0,0,0,6.83-20.52,45.08,45.08,0,0,0-1.35-15.43A46.78,46.78,0,0,0,99.58,31.11,46.58,46.58,0,0,0,84,22.5,53,53,0,0,0,65.8,19.89a49.8,49.8,0,0,0-13,2.36,49,49,0,0,0-20,12,47.36,47.36,0,0,0-9.62,13.52,45.28,45.28,0,0,0-4.21,23.76,44.66,44.66,0,0,0,4,15,47,47,0,0,0,10.15,14.25A48.59,48.59,0,0,0,61.43,114.2,59.65,59.65,0,0,0,67.57,114.58Z"/><path class="cls-1" d="M8.52,41.17a26.44,26.44,0,0,0,3.12,2.47c1.81,1.28,3.56,2.63,5.31,4a.63.63,0,0,1,.22.87c-.23.52-.42,1.05-.6,1.58s-.42.58-.89.49Q10.85,49.65,6,48.75a3.71,3.71,0,0,0-.48,0c0,.19.13.17.21.21,3.11,1.23,6.08,2.76,9.14,4.09.42.18.48.39.31.78s-.39,1-.57,1.44-.27.59-.8.36c-2-.85-4-1.68-5.91-2.55s-3.73-1.71-5.59-2.55a.53.53,0,0,1-.33-.8c.41-1,.8-2.11,1.19-3.17.13-.34.29-.47.69-.37,3.08.74,6.2,1.28,9.33,1.75l.53,0a1.83,1.83,0,0,0-.56-.58c-2.06-1.73-4.24-3.3-6.43-4.85-.49-.35-.88-.81-1.35-1.17-.19-.14-.13-.31-.06-.48.41-1.09.83-2.17,1.25-3.25.15-.41.42-.3.71-.18,2.48,1.08,5,2.15,7.45,3.24,1.39.61,2.75,1.29,4.13,1.91.35.16.45.34.29.71s-.3,1-.49,1.42-.6.72-1.13.43c-2.64-1.4-5.52-2.27-8.13-3.74a1.81,1.81,0,0,0-.81-.3c0-.06-.12-.18-.2-.07S8.46,41.13,8.52,41.17Z"/><path class="cls-1" d="M102.9,14.89,102,16.31c-1.34,2.23-2.68,4.45-4,6.68-.2.34-.39.43-.73.16s-.74-.45-1.09-.7a1,1,0,0,1-.28-1.52c2.24-3.21,4.12-6.63,6.17-10,.21-.34.42-.69.62-1s.38-.4.7-.17c.49.34,1,.64,1.49,1a1.46,1.46,0,0,1,.62,1.49c-.32,1.82-.29,3.67-.44,5.5-.12,1.49-.19,3-.29,4.46,0,.21,0,.43,0,.77.79-1.29,1.51-2.48,2.23-3.68l2.52-4.19c.37-.6.47-.61,1-.2.29.21.61.37.91.56.61.36.7.67.31,1.31-.48.8-1,1.58-1.49,2.38-1.78,3-3.68,5.85-5.36,8.87-.18.32-.37.36-.66.14s-.78-.57-1.19-.83a1.57,1.57,0,0,1-.76-1.56c.2-2.82.37-5.64.55-8.46,0-.79.09-1.58.14-2.37Z"/><path class="cls-1" d="M36.65,18.74c-.23-.09-.24-.33-.34-.5-1.34-2.51-2.84-4.92-4.23-7.4-.32-.57-.32-.58.21-.95.3-.2.56-.44.85-.65.66-.47,1-.41,1.4.32,1.06,2,2.26,4,3.4,6,1,1.71,2,3.41,3,5.11.31.54.3.6-.21.93a6.92,6.92,0,0,0-.93.77,1.23,1.23,0,0,1-1.83.12c-2.74-1.9-5.73-3.36-8.61-5h-.12l.07.08a2.24,2.24,0,0,0,.35.73q2.09,3.59,4.19,7.15c.35.59.33.65-.23,1.05-.37.26-.73.54-1.08.82-.51.4-.6.38-.91-.17L27.35,19.7q-1.2-2.1-2.42-4.19c-.19-.32-.15-.52.17-.71.55-.34,1.09-.7,1.61-1.08a.85.85,0,0,1,1,0c2.87,1.56,5.64,3.28,8.44,4.94.13.08.26.34.48.12,0,0-.13,0-.07.09Z"/><path class="cls-1" d="M52.15,15.18l-.48,1c-1.76,3.62-7,3.41-8.87,1a10.66,10.66,0,0,1-2.54-7c.14-3.72,2-6,5.7-6.77a5.13,5.13,0,0,1,5.49,2.32c.33.55.27.75-.32.91a7,7,0,0,0-1.77.66c-.13.07-.22.09-.32,0a2.82,2.82,0,0,0-3.48-1.16,3.43,3.43,0,0,0-2.37,3.08,7.19,7.19,0,0,0,1.46,5.6A3.12,3.12,0,0,0,48.07,16a3.33,3.33,0,0,0,2.68-2.73,4.18,4.18,0,0,0,.09-1.06c0-.39-.15-.52-.54-.4a17.78,17.78,0,0,0-1.73.76c-.72.31-.75.28-.94-.45-.1-.39-.26-.76-.39-1.14a.58.58,0,0,1,.39-.85c1.51-.42,3-1,4.45-1.49.39-.14.47.13.56.41.53,1.76,1.07,3.51,1.61,5.27.12.39.25.77.37,1.16s.05.61-.34.71l-.14.05c-1,.4-1.13.37-1.68-.61C52.38,15.47,52.34,15.28,52.15,15.18Z"/><path class="cls-1" d="M14,89.9c-1.72.84-3.22,2-4.87,2.86-1,.52-1.91,1.08-2.85,1.64-.35.22-.53.17-.71-.2s-.51-.86-.73-1.31S4.65,92,5.2,91.7q4.83-2.82,9.65-5.65c.4-.23.76-.54,1.15-.81s.49-.13.65.2c.3.66.61,1.31,1,2a.89.89,0,0,1-.14.94L13.7,94.9c-.54.95-1,1.93-1.56,2.89.17.12.26,0,.36-.08,2.05-1.07,3.95-2.4,5.93-3.57.47-.28.94-.57,1.43-.83s.69-.16.92.32.42.83.63,1.25c.31.6.29.7-.29,1-1.78,1-3.59,2-5.36,3.11s-3.51,2.13-5.25,3.2c-.69.42-.79.4-1.11-.32a9.85,9.85,0,0,0-.65-1.3,1.48,1.48,0,0,1,.05-1.68c1.39-2.37,2.76-4.74,4.13-7.12C13.28,91.18,13.61,90.54,14,89.9Z"/><path class="cls-1" d="M124.11,44.41a3.36,3.36,0,0,1-2.1,3.26c-.5.29-1,.6-1.49.91a1.35,1.35,0,0,0-.71.93c0,.11,0,.24-.18.26s-.23-.08-.3-.2l-1.18-2.28a.66.66,0,0,1,.24-.85,14.29,14.29,0,0,1,2.24-1.53c1.39-.85,1.53-1.25,1-2.77-.37-1-.91-1.86-1.37-2.78-.12-.23-.27-.29-.5-.15l-4,2.32a1.91,1.91,0,0,0-.31.28c-.41-.77-.82-1.52-1.21-2.27-.15-.29,0-.48.24-.64,3.3-1.84,6.42-4,9.74-5.78.43-.23.83-.49,1.25-.75a.49.49,0,0,1,.79.23c1.08,2.18,2.23,4.33,3.25,6.54A4.05,4.05,0,0,1,128,44.52a3.2,3.2,0,0,1-3.69-.06Zm1.21-2a2,2,0,0,0,1.76-2.69c-.51-1.18-1.11-2.32-1.67-3.49-.12-.23-.25-.3-.49-.15l-2.54,1.6c-.19.12-.27.26-.15.48.67,1.2,1.31,2.41,2,3.6A1.18,1.18,0,0,0,125.32,42.39Z"/><path class="cls-1" d="M114.5,110.07l-2.74-3.34c-1.05-1.27-2.09-2.55-3.15-3.81-.28-.33-.3-.56,0-.85s.75-.67,1.11-1,.51-.41.87,0c1.72,2.08,3.45,4.16,5.16,6.25,1,1.17,2,2.28,2.81,3.53.49.74.51.79-.07,1.45l-.16.18a2.2,2.2,0,0,1-2.89.71c-1.64-.69-3.31-1.3-5-1.88a15.91,15.91,0,0,1-2.81-1.14A1,1,0,0,0,107,110a12.16,12.16,0,0,0,1.66,2.21c1.47,1.6,2.68,3.41,4.12,5a.43.43,0,0,1-.06.7c-.41.35-.79.72-1.17,1.09s-.53.39-.89-.05l-6.53-8c-.57-.7-1.14-1.4-1.73-2.09-.26-.31-.28-.55,0-.83a12.42,12.42,0,0,0,1-1,1.43,1.43,0,0,1,1.76-.36C108,108,111.05,108.91,114,110,114.16,110.07,114.29,110.18,114.5,110.07Z"/><path class="cls-1" d="M22.06,111a.48.48,0,0,0,.43-.26c1.22-1.59,2.75-2.88,4.08-4.35l1.89-2.09c.35-.39.45-.39.79,0l1.07,1.25a.58.58,0,0,1,0,.92c-2.75,2.72-5.27,5.65-8,8.39a9.71,9.71,0,0,0-.73,1c-.36.46-.77.47-1.1,0a7.63,7.63,0,0,0-.91-1.13,1.66,1.66,0,0,1-.39-1.71c.51-1.87,1-3.74,1.54-5.6.36-1.33.69-2.66,1-4,0-.11.15-.27,0-.35s-.25.07-.35.18q-2.81,3-5.59,5.93c-.1.11-.2.21-.31.31a.4.4,0,0,1-.64,0c-.35-.36-.71-.71-1.05-1.07s-.44-.82,0-1.26c1.9-1.76,3.58-3.73,5.39-5.57,1.17-1.19,2.28-2.44,3.41-3.66.4-.43.47-.42.87,0s.62.7,1,1a1.46,1.46,0,0,1,.39,1.51c-.57,2.12-1.13,4.24-1.7,6.36l-1,3.7C22.09,110.66,22.08,110.81,22.06,111Z"/><path class="cls-1" d="M135,56.08A6.72,6.72,0,0,1,129.22,63a10.32,10.32,0,0,1-3.28.17,5.23,5.23,0,0,1-4.1-2.9,7.56,7.56,0,0,1-.07-8,6.73,6.73,0,0,1,4.93-3.09,9.49,9.49,0,0,1,3.23-.15,5.63,5.63,0,0,1,4.27,3.44A7.88,7.88,0,0,1,135,56.08Zm-8.06,4a6.58,6.58,0,0,0,4.25-1.36,3.5,3.5,0,0,0,1.3-3.67A3.17,3.17,0,0,0,130,52.31a6,6,0,0,0-5.66,1.33,3.51,3.51,0,0,0-1,3.89A3.1,3.1,0,0,0,126,60Z"/><path class="cls-1" d="M96.74,10.67a11.33,11.33,0,0,1-2.24,6.44,5.39,5.39,0,0,1-5.58,2.1A6.61,6.61,0,0,1,83.39,13,10.51,10.51,0,0,1,85.51,6a5.85,5.85,0,0,1,7.41-1.63A6.44,6.44,0,0,1,96.74,10.67Zm-2.85.08a4.62,4.62,0,0,0-1.22-3.41A3.15,3.15,0,0,0,88.56,7a7.66,7.66,0,0,0-2.32,6.48,3.29,3.29,0,0,0,2.62,2.91,3.21,3.21,0,0,0,3.51-1.38A8.14,8.14,0,0,0,93.89,10.75Z"/><path class="cls-1" d="M61.39,15.55a6.81,6.81,0,0,1-2.81-.5,4.23,4.23,0,0,1-2.46-3.47c0-.29.05-.46.37-.49.6-.05,1.19-.11,1.79-.2a.5.5,0,0,1,.62.38,4,4,0,0,0,.3.71,1.75,1.75,0,0,0,1.48,1,6.11,6.11,0,0,0,2.17-.17,2.2,2.2,0,0,0,1.41-1.17,1.37,1.37,0,0,0-.81-2,15.69,15.69,0,0,0-3-.58,6.58,6.58,0,0,1-3.07-1A4.45,4.45,0,0,1,57.85.83,6.86,6.86,0,0,1,63.12.31a4.33,4.33,0,0,1,3,3.57c.07.29-.06.49-.37.49a10.15,10.15,0,0,0-1.35.16,1,1,0,0,1-1.28-.75,1.42,1.42,0,0,0-1.21-1,3.7,3.7,0,0,0-2.63.32,1.5,1.5,0,0,0-.88,1.62,1.39,1.39,0,0,0,1.33,1.2c1.37.24,2.75.44,4.11.7a3.7,3.7,0,0,1,3.31,4A4.54,4.54,0,0,1,63,15.36C62.39,15.46,61.81,15.5,61.39,15.55Z"/><path class="cls-1" d="M122.71,97.61a.89.89,0,0,0-.8.62c-.75,1.54-1.78,2.92-2.61,4.42-.36.66-.4.65-1,.22-.23-.17-.5-.3-.74-.45-.61-.39-.69-.73-.29-1.38.6-.94,1.21-1.87,1.82-2.8.39-.6.76-1.2,1.17-1.79a.59.59,0,0,0-.16-.91L117.92,94c-.23-.17-.35-.12-.5.11-1.15,1.89-2.32,3.77-3.48,5.65-.43.7-.51.71-1.14.22-.26-.21-.54-.4-.83-.59-.48-.31-.5-.38-.19-.88,1.35-2.16,2.71-4.32,4.06-6.49.37-.59.72-1.18,1-1.79.18-.33.34-.43.67-.17,3.38,2.61,6.92,5,10.32,7.58.55.42.57.48.21,1.06-1.65,2.62-3.33,5.23-4.88,7.92-.2.34-.37.42-.7.14s-.85-.64-1.28-1a.42.42,0,0,1-.12-.68c1.23-1.85,2.39-3.72,3.53-5.62.19-.32.19-.5-.13-.72s-.81-.64-1.22-1A1,1,0,0,0,122.71,97.61Z"/><path class="cls-1" d="M73.51,6.17c1.37-1.32,2.8-2.4,4-3.73.43-.49.94-.89,1.41-1.33A.46.46,0,0,1,79.28,1l3.44.35a30.42,30.42,0,0,1-3.19,3c-.79.67-1.57,1.34-2.38,2a.64.64,0,0,0-.18.92q2.16,4.14,4.3,8.29l.29.57-3.42-.42a.47.47,0,0,1-.35-.3q-1.49-3-3-5.94c-.3-.61-.37-.62-.9-.18a2.68,2.68,0,0,0-1,2.24c0,1-.25,2-.3,3.09,0,.28-.18.4-.46.37l-2-.23c-.35,0-.37-.27-.34-.53.11-1.12.23-2.25.35-3.37.34-3.31.68-6.63,1-9.94,0-.06,0-.13,0-.19.08-.68.16-.73.83-.63.48.07,1,.14,1.44.18s.66.16.61.69l-.54,4.86C73.5,5.87,73.51,6,73.51,6.17Z"/><path class="cls-1" d="M9.29,79.8c-.07.92-.06,1.85-.22,2.76a3.25,3.25,0,0,1-2.29,2.8,3.79,3.79,0,0,1-4-.71,6.16,6.16,0,0,1-1.83-4,7.14,7.14,0,0,1,.83-4.55,3.72,3.72,0,0,1,2-1.55c.26-.1.39,0,.44.27L4.72,77a.41.41,0,0,1-.27.5A2,2,0,0,0,3.29,79.6a4.56,4.56,0,0,0,.64,2.5,1.37,1.37,0,0,0,2.6-.72c0-1.42.07-2.84.12-4.27a8.88,8.88,0,0,1,.13-1.45,3.62,3.62,0,0,1,5.05-2.81,3.9,3.9,0,0,1,2.28,2.06,9.52,9.52,0,0,1,.78,6.55,3.93,3.93,0,0,1-2.53,2.79c-.54.2-.66.13-.76-.41s-.24-1.14-.36-1.71c-.05-.22-.1-.44.16-.59a2.82,2.82,0,0,0,1.28-3.35,6.65,6.65,0,0,0-.81-2.12,1.25,1.25,0,0,0-1.35-.64,1.17,1.17,0,0,0-1,1,5.14,5.14,0,0,0-.18.95C9.27,78.19,9.29,79,9.29,79.8Z"/><path class="cls-1" d="M0,63.88l.21-2.3A.62.62,0,0,1,.71,61C5,59.77,9.32,58.52,13.63,57.28c.38-.11.51,0,.48.4-.07.74-.14,1.48-.17,2.22a.58.58,0,0,1-.53.63c-.63.14-1.25.31-1.88.45a.58.58,0,0,0-.52.64q-.06,2.06-.27,4.11c-.06.71.13,1,.83,1.22.54.17,1,.45,1.55.66a.52.52,0,0,1,.32.59c-.06.68-.1,1.35-.16,2s-.11.65-.67.4c-2-.92-4-1.83-6.07-2.77l-6.25-3A.39.39,0,0,1,0,64.46a5.61,5.61,0,0,0,0-.58Zm3.36-.67,0,.11,5.07,2.14.21-3.55Z"/><path class="cls-1" d="M115.59,19.27a.69.69,0,0,1,.35.25l6.19,7.08a6.34,6.34,0,0,0,.69.86.47.47,0,0,1,0,.73c-.4.4-.81.79-1.22,1.18-.21.2-.4.1-.54-.08a29.37,29.37,0,0,1-2.16-2.55c-.18-.27-.36-.43-.63-.1-1.53,1.85-3.38,3.38-5,5.16-.8.89-1.67,1.72-2.49,2.58-.26.28-.44.29-.69,0A18.79,18.79,0,0,0,108.83,33a.47.47,0,0,1,0-.72c.23-.27.44-.56.69-.81,2.22-2.26,4.44-4.53,6.68-6.77.34-.35.39-.58,0-1-.69-.76-1.34-1.58-2-2.35-.27-.31-.3-.53,0-.82s.7-.67,1-1A.59.59,0,0,1,115.59,19.27Z"/><path class="cls-1" d="M26.54,32.8a.79.79,0,0,1-.2.41c-1.76,2.4-3.53,4.79-5.28,7.2-.23.31-.37.34-.68.09-3.32-2.66-6.42-5.58-9.73-8.26-.6-.5-.59-.58-.12-1.23.29-.39.59-.77.87-1.17s.49-.55,1-.12L16,32.8q2,1.73,4,3.42c.52.44.63.42,1-.14,1.1-1.56,2.37-3,3.35-4.64.18-.3.43-.4.72-.14.45.42.89.85,1.33,1.28A.64.64,0,0,1,26.54,32.8Z"/><path class="cls-1" d="M118.06,87.84c0-.14.07-.28.12-.42,1-2.63,1.77-5.36,2.63-8l.09-.28c.17-.49.31-.57.79-.39,1.92.72,3.87,1.35,5.74,2.19s3.95,1.49,5.92,2.26c.57.22.59.28.41.86s-.41,1.26-.59,1.89c-.1.36-.28.44-.61.28-3.07-1.44-6.33-2.4-9.48-3.65-.56-.23-.55-.21-.74.38q-.9,2.82-1.82,5.62c-.17.53-.31.57-.82.38s-.73-.24-1.1-.36A.66.66,0,0,1,118.06,87.84Z"/><path class="cls-1" d="M135,70.63l-8.26-.7-1.45-.14c-.62-.06-.74,0-.79.66l-.21,3c-.07,1-.13,2-.2,3,0,.49-.15.56-.65.5s-.87,0-1.3-.09-.6-.23-.57-.71q.3-3.69.58-7.39c0-.56.09-1.13.11-1.69s.21-.57.62-.54c3.12.28,6.25.54,9.37.81l3,.25c.58,0,.72.17.66.75a14.18,14.18,0,0,0-.12,1.6C135.74,70.58,135.62,70.67,135,70.63Z"/><path class="cls-1" d="M30,29.53a.72.72,0,0,1-.12.23c-.41.44-.8.89-1.23,1.3s-.86.45-1.27-.09c-2.25-3-4.78-5.69-7.11-8.58a11.6,11.6,0,0,0-1-1.27.54.54,0,0,1,0-.85c.51-.5,1-1,1.57-1.45.24-.22.36,0,.5.17,1,1.2,2.06,2.4,3.07,3.62,1.77,2.1,3.52,4.22,5.27,6.33A1.58,1.58,0,0,1,30,29.53Z"/><path class="cls-1" d="M35,109.21a.89.89,0,0,1-.21.48c-2.2,3.36-4.41,6.71-6.61,10.08-.26.39-.49.8-.72,1.2-.14.24-.28.27-.5.1a14.56,14.56,0,0,1-1.56-1.37.67.67,0,0,1,0-1q1.38-2.06,2.74-4.12,2.17-3.31,4.33-6.65c.36-.55.4-.56.92-.15l1.36,1C34.9,108.94,35.06,109,35,109.21Z"/><path class="cls-1" d="M89.3,139.59v-6.05c0-.4,0-.75.51-.8s.72.08.72.63c0,.93,0,1.87,0,2.81,0,1.64,0,3.27,0,4.91a1.43,1.43,0,0,1,0,.29c0,.25.3.59-.15.75a1,1,0,0,1-1.3-.41l-3.41-5.92c-.1-.18-.21-.35-.32-.53-.19.1-.12.26-.12.39,0,2,0,3.92,0,5.88,0,.48-.12.58-.64.62S84,142,84,141.55c0-2.55,0-5.09,0-7.63a2.54,2.54,0,0,1,0-.39c0-.25-.28-.59.18-.74a1,1,0,0,1,1.29.42L88.17,138c.33.56.68,1.12,1,1.68Z"/><path class="cls-1" d="M54.46,137.43c0-1.36,0-2.72,0-4.08,0-.47.16-.63.62-.61.87,0,1.75,0,2.62.07a3.22,3.22,0,0,1,3,2.47,7.9,7.9,0,0,1,0,4.26,3.37,3.37,0,0,1-3.36,2.61c-.76,0-1.52,0-2.28,0-.43,0-.57-.15-.57-.56C54.47,140.21,54.46,138.82,54.46,137.43Zm5.22.17c0-.28,0-.62,0-.95-.2-2.21-1.09-3-3.31-2.89-.66,0-.67,0-.67.68v5.24c0,1.5.11,1.59,1.61,1.45a2.26,2.26,0,0,0,2.17-1.75A7.73,7.73,0,0,0,59.68,137.6Z"/><path class="cls-1" d="M52.77,137.57a6.29,6.29,0,0,1-.54,3,3.36,3.36,0,0,1-3.5,1.73A3.08,3.08,0,0,1,46.09,140a9.33,9.33,0,0,1,0-5.16,3.17,3.17,0,0,1,3.17-2.16,3.37,3.37,0,0,1,3.2,2.3A7.82,7.82,0,0,1,52.77,137.57Zm-5.71-.1c0,.4,0,.81,0,1.21a3.42,3.42,0,0,0,.5,1.65,1.89,1.89,0,0,0,2,.88A1.8,1.8,0,0,0,51.18,140a7.76,7.76,0,0,0,0-5.08,1.63,1.63,0,0,0-.63-.83,2.1,2.1,0,0,0-3.27,1.08A6.35,6.35,0,0,0,47.06,137.47Z"/><path class="cls-1" d="M37.64,137.43a7.79,7.79,0,0,1,.19-2.5,3.43,3.43,0,0,1,5.66-1.37,3.06,3.06,0,0,1,.73,1.71c0,.07,0,.19-.06.21a1.76,1.76,0,0,1-.84.14c-.26,0-.32-.23-.38-.44a1.94,1.94,0,0,0-2.77-1.37,1.59,1.59,0,0,0-1,1,7.87,7.87,0,0,0-.06,5.05,2.44,2.44,0,0,0,3.61,1,.66.66,0,0,0,.29-.53c0-.44,0-.88,0-1.31a.56.56,0,0,0-.59-.58,5.88,5.88,0,0,0-.73,0c-.33,0-.56-.06-.55-.47s.18-.6.59-.57a13.09,13.09,0,0,0,2,0c.37,0,.54.15.54.52,0,.87,0,1.75,0,2.62a1.06,1.06,0,0,1-.42.88,3.87,3.87,0,0,1-4,.59,3.22,3.22,0,0,1-2.18-3C37.6,138.5,37.64,138,37.64,137.43Z"/><path class="cls-1" d="M68.87,132.87l-2.79,3.79c-.46.61-.46.7,0,1.31,1,1.34,2,2.69,3,4.08a1.59,1.59,0,0,1-1.67-.24,3.92,3.92,0,0,1-.57-.72c-.68-1-1.36-1.89-2-2.84a.84.84,0,0,0-.46-.33c-.46-.12-.72,0-.74.48,0,1,0,2,0,3.06,0,.24.08.54-.18.65a1.24,1.24,0,0,1-.85,0c-.22-.07-.2-.31-.2-.51,0-1.06,0-2.13,0-3.2,0-1.68,0-3.37,0-5,0-.56.08-.61.71-.62s.54.28.53.66c0,1.07,0,2.13,0,3.2a.27.27,0,0,0,.25.3c.29,0,.59.1.8-.19s.49-.64.73-1c.54-.75,1.08-1.49,1.6-2.25A1.44,1.44,0,0,1,68.87,132.87Z"/><path class="cls-1" d="M76.89,137.45v-4c0-.62.06-.68.65-.68H82c.51,0,.64.14.62.58s-.26.46-.59.46c-1.1,0-2.2,0-3.3,0-.47,0-.63.14-.6.61,0,.64,0,1.29,0,1.94,0,.35.12.49.48.49.9,0,1.81,0,2.72,0,.34,0,.75-.1.76.47s-.13.56-.73.56c-.91,0-1.82,0-2.72,0-.37,0-.52.13-.51.51,0,.76,0,1.52,0,2.28,0,.44.17.56.58.55,1.13,0,2.27,0,3.4,0,.38,0,.58.12.57.53s-.2.51-.58.5c-1.55,0-3.11,0-4.66,0-.39,0-.55-.15-.55-.55C76.89,140.23,76.89,138.84,76.89,137.45Z"/><path class="cls-1" d="M95.56,138c0,1.19,0,2.39,0,3.59,0,.37,0,.62-.52.6-.64,0-.74-.06-.74-.59,0-2.33,0-4.66,0-7,0-.79,0-.81-.82-.8-.5,0-1,0-1.51,0s-.43-.24-.44-.53.07-.51.42-.51H97.9c.35,0,.42.22.41.51s-.06.54-.46.53c-.58,0-1.16,0-1.74,0s-.58.15-.57.56c0,1.21,0,2.42,0,3.64Z"/><path class="cls-1" d="M74.86,136.64c0,1,0,1.92,0,2.87.12,2.07-1.56,3.09-3.41,2.72a2.33,2.33,0,0,1-1.95-2.38c0-.18,0-.34.24-.33s.69-.27.92.16a.84.84,0,0,1,.08.32,1.3,1.3,0,0,0,1.52,1.27,1.33,1.33,0,0,0,1.35-1.41c0-2.15,0-4.3,0-6.46a.67.67,0,0,1,1-.61c.22.11.19.32.19.5,0,1.12,0,2.24,0,3.36Z"/><path class="cls-1" d="M88.15,99H74.65a2.37,2.37,0,0,1-1.45-.47c-3.29-2.34-6.43-4.9-9.75-7.21-.38-.26-.7-.61-1.06-.91-.1-.08-.21-.2-.34-.14s-.11.22-.11.35c0,2,0,4,0,6.06,0,.76-.1.86-.87.85-4.36,0-8.71,0-13.07,0l-3.25,0c-.67,0-.75-.08-.75-.76V79.25c0-.47,0-.94,0-1.41a1.72,1.72,0,0,0-.76-1.57c-1.14-.91-2.32-1.77-3.51-2.61-2-1.37-3.81-2.89-5.74-4.31-.31-.23-.27-.32,0-.51,3.21-1.91,6.22-4.12,9.46-6A1.06,1.06,0,0,0,44,61.79q0-8.51,0-17c0-.9,0-.94.93-.94H61.08c.79,0,.9.11.89.9,0,1.88,0,3.75,0,5.63,0,.14-.07.32.07.41s.29,0,.43-.13c3.62-2.13,7.09-4.51,10.63-6.76a2.12,2.12,0,0,1,1.15-.31h30c.15,0,.38-.09.42.11s-.2.23-.32.31c-5.71,3.57-11.38,7.21-17.06,10.85S76.15,61.92,70.63,65.5c-1.71,1.11-3.43,2.2-5.13,3.31-.34.23-.34.34,0,.59,4,3.2,8,6.36,12,9.53,5.43,4.3,10.78,8.69,16.22,13,2.78,2.19,5.48,4.49,8.29,6.64.13.1.34.18.28.36s-.28.09-.42.09Z"/><path class="cls-1" d="M53,40.25c-2.71,0-5.41,0-8.11,0-.79,0-.83,0-.83-.81V30.25c0-.76.06-.81.84-.81H61.19c.67,0,.78.11.78.79,0,2.45,0,4.89,0,7.34,0,.66,0,1.32,0,2s-.13.74-.75.74l-5.73,0Z"/></g></g></svg>